<svg width="418" height="125" viewBox="0 0 418 125" fill="none" xmlns="http://www.w3.org/2000/svg">
<g filter="url(#filter0_d)">
<path d="M138.358 50.4169C130.695 50.4169 124.564 56.528 124.564 64.1669C124.564 71.8058 130.695 77.9169 138.358 77.9169C146.021 77.9169 152.152 71.8058 152.152 64.1669C152.152 56.528 146.021 50.4169 138.358 50.4169ZM138.358 70.278C135.014 70.278 132.227 67.5002 132.227 64.1669C132.227 60.8335 135.014 58.0558 138.358 58.0558C141.702 58.0558 144.489 60.8335 144.489 64.1669C144.349 67.5002 141.702 70.278 138.358 70.278Z" fill="white"/>
<path d="M365.75 50.2777C358.087 50.2777 351.956 56.3888 351.956 64.0277C351.956 71.6666 358.087 77.7777 365.75 77.7777C373.413 77.7777 379.544 71.6666 379.544 64.0277C379.544 56.3888 373.413 50.2777 365.75 50.2777ZM365.75 70.1388C362.406 70.1388 359.619 67.361 359.619 64.0277C359.619 60.6944 362.406 57.9166 365.75 57.9166C369.094 57.9166 371.881 60.6944 371.881 64.0277C371.741 67.4999 369.094 70.1388 365.75 70.1388Z" fill="white"/>
<path d="M120.105 57.9169C119.966 57.9169 119.966 57.778 120.105 57.9169C118.991 55.0002 116.343 50.8335 109.795 50.5558C105.057 50.4169 102.41 50.4169 100.877 50.4169C100.738 50.4169 100.738 50.4169 100.738 50.4169H99.0661C97.9514 50.4169 97.1154 50.9724 96.9761 51.8058V77.9169H104.779V71.8058H110.631C110.631 71.8058 118.433 71.8058 120.245 62.3613C120.245 61.9447 120.384 61.6669 120.384 61.2502C120.384 60.0002 120.384 59.1669 120.105 57.9169ZM112.86 60.8335C112.721 64.5835 108.541 64.5835 108.541 64.5835H106.869C105.754 64.5835 104.779 63.7502 104.779 62.9169V58.6113C104.779 57.6391 105.754 56.9447 106.869 56.9447H108.541C108.541 56.8058 112.721 56.8058 112.86 60.8335C112.86 60.6946 112.86 60.6946 112.86 60.8335C112.86 60.6946 112.86 60.6946 112.86 60.8335Z" fill="white"/>
<path d="M295.944 57.9169C294.83 55.0002 292.182 50.8335 285.634 50.5558C280.896 50.4169 278.249 50.4169 276.716 50.4169C276.577 50.4169 276.577 50.4169 276.577 50.4169H274.905C273.79 50.4169 272.954 50.9724 272.815 51.8058V77.9169H280.618V71.8058H286.47C286.47 71.8058 294.272 71.8058 296.084 62.3613C296.084 61.9447 296.223 61.6669 296.223 61.2502C296.223 60.1391 296.223 59.3058 295.944 57.9169ZM288.699 60.8335C288.56 64.5835 284.38 64.5835 284.38 64.5835H282.847C281.732 64.5835 280.757 63.7502 280.757 62.9169V58.6113C280.757 57.6391 281.732 56.9447 282.847 56.9447H284.519C284.38 56.9447 288.56 56.9446 288.699 60.8335Z" fill="white"/>
<path d="M405.321 58.4723C405.321 58.4723 405.321 58.3334 405.321 58.4723C404.206 55.5556 401.559 51.389 395.01 51.1112C390.273 50.9723 387.625 50.9723 386.093 50.9723C385.953 50.9723 385.953 50.9723 385.953 50.9723H384.281C383.167 50.9723 382.331 51.5278 382.191 52.3612V78.4723H389.994V72.3612H395.846C395.846 72.3612 403.649 72.3612 405.46 62.9167C405.46 62.5001 405.599 62.2223 405.599 61.8056C405.739 60.5556 405.599 59.7223 405.321 58.4723ZM398.075 61.389C397.936 65.139 393.756 65.139 393.756 65.139H392.084C390.969 65.139 389.994 64.3056 389.994 63.4723V59.1667C389.994 58.1945 390.969 57.5001 392.084 57.5001H393.756C393.895 57.3612 397.936 57.3612 398.075 61.389C398.075 61.2501 398.075 61.2501 398.075 61.389C398.075 61.2501 398.075 61.2501 398.075 61.389Z" fill="white"/>
<path d="M179.043 55.0002C176.535 52.2224 172.913 50.4169 168.872 50.4169C161.209 50.4169 155.078 56.528 155.078 64.1669C155.078 71.8058 161.209 77.9169 168.872 77.9169C170.265 77.9169 171.519 77.6391 172.773 77.3613C172.773 77.3613 173.052 77.2224 173.47 77.0835C174.585 76.6669 176.675 75.8335 177.65 74.5835C177.789 74.5835 177.789 74.4447 177.929 74.3058C178.068 74.028 178.207 73.6113 177.929 73.0558C177.65 72.3613 177.232 71.2502 176.814 70.278C176.814 70.278 176.675 70.0002 176.535 69.7224C176.535 69.7224 176.396 69.4447 176.257 69.1669C176.257 69.028 176.257 69.028 176.117 68.8891C175.699 68.1947 174.863 68.6113 174.863 68.6113C174.445 68.7502 174.027 69.028 174.027 69.028C173.888 69.028 173.749 69.1669 173.749 69.1669C172.355 69.7224 170.823 69.8613 169.708 69.8613C167.339 69.8613 165.946 69.028 165.249 68.4724C162.881 66.3891 163.02 63.4724 163.995 61.2502C164.135 61.1113 164.831 59.8613 165.946 59.028C165.946 59.028 166.085 59.028 166.085 58.8891C166.225 58.7502 166.364 58.7502 166.503 58.6113C166.921 58.4724 167.339 58.3335 167.757 58.1947C169.29 57.9169 170.683 58.0558 171.798 58.3335C172.495 58.4724 173.888 58.8891 175.281 59.7224C175.421 59.8613 175.56 59.8613 175.699 59.8613C175.699 59.8613 176.257 60.278 177.232 58.4724C177.929 57.0835 178.486 56.3891 178.625 55.9724V55.8335C178.625 55.8335 178.625 55.8335 178.625 55.6946C179.322 55.6946 179.461 55.278 179.043 55.0002Z" fill="white"/>
<path d="M238.4 51.9444C238.4 50.9722 237.564 50 236.449 50H234.916H216.246H214.852H214.713C213.598 50 212.762 50.8333 212.762 51.9444V53.4722V56.6667V77.9167H220.983V57.5H229.9V77.6389H238.26V56.5278V51.9444H238.4Z" fill="white"/>
<path d="M324.507 50.4169L326.876 58.0558H334.539V77.9169H342.342V58.0558H349.587C349.587 58.0558 351.399 51.8058 352.095 50.4169" fill="white"/>
<path d="M316.984 50.4169H305.698L295.666 77.6391L305.837 77.9169L306.534 73.6113H315.73L316.844 77.6391H327.016L316.984 50.4169ZM308.763 67.778L311.41 58.7502L314.058 67.778H308.763Z" fill="white"/>
<path d="M194.091 50C186.428 50 180.297 56.1111 180.297 63.75C180.297 71.3889 186.428 77.5 194.091 77.5C201.755 77.5 207.885 71.3889 207.885 63.75C207.885 56.1111 201.755 50 194.091 50ZM194.091 69.8611C190.747 69.8611 187.961 67.0833 187.961 63.75C187.961 60.4167 190.747 57.6389 194.091 57.6389C197.435 57.6389 200.222 60.4167 200.222 63.75C200.222 67.2222 197.435 69.8611 194.091 69.8611Z" fill="white"/>
<path d="M253.865 66.8057H263.897V61.2502H253.865V56.9446H265.43L267.938 50.4169H248.571H248.013H247.177C246.202 50.4169 245.505 51.1113 245.505 52.0835V54.5835V56.2502V71.9446V75.9724V76.1113C245.505 76.9446 246.341 77.6391 247.177 77.6391H247.874H248.431H263.34L265.709 71.9446H253.587V66.8057H253.865Z" fill="white"/>
<path d="M48.3486 62.6387C47.7913 49.3054 35.6693 49.1665 35.6693 49.1665H30.9319C27.5879 49.1665 24.8013 51.9443 24.8013 55.2776V70.1387C24.8013 73.4721 27.5879 76.2498 30.9319 76.2498H35.6693C35.6693 76.2498 47.6519 76.2498 48.2093 62.9165V62.7776C48.3486 62.6387 48.3486 62.6387 48.3486 62.6387Z" fill="#2EBDDC"/>
<path d="M81.2313 59.0279C80.2559 44.0279 73.7073 34.1668 66.6013 27.7779C59.3559 21.5279 50.9959 18.3334 44.1686 16.9446C37.7593 15.6946 28.9813 15.5557 28.1453 15.5557C26.0553 15.5557 23.6866 15.5557 21.0393 15.5557H17.5559C14.3513 15.5557 11.8433 17.3612 11.8433 19.7223V29.8612C11.8433 32.0834 14.4906 34.0279 17.5559 34.0279H22.0146C22.0146 34.0279 22.2933 34.0279 22.8506 34.0279C22.9899 34.0279 23.1293 34.0279 23.2686 34.0279C25.2193 34.0279 28.0059 34.0279 31.6286 34.1668C37.6199 34.0279 43.7506 35.8334 47.3733 37.5001C50.4386 39.1668 53.5039 41.389 55.8726 44.5834C60.0526 49.4445 62.6999 55.8334 62.9786 62.639C63.2573 69.7223 60.3313 76.389 55.4546 81.389C51.5533 85.5557 46.5373 88.4723 41.1033 89.8612C36.2266 91.2501 32.1859 91.389 31.4893 91.5279C31.3499 91.5279 31.2106 91.5279 31.2106 91.5279C30.6533 91.6668 30.0959 91.6668 29.3993 91.6668C28.8419 91.8057 28.2846 91.8057 27.7273 91.9445C25.9159 92.639 24.6619 94.0279 24.6619 95.5557V105.695C24.6619 107.917 27.3093 109.861 30.3746 109.861H34.8333C34.8333 109.861 35.1119 109.861 35.5299 109.861C35.5299 109.861 36.0873 109.861 37.2019 109.722C44.8653 109.028 51.1353 106.945 56.2906 104.167C59.0773 102.778 61.7246 101.111 64.0933 99.0279C74.4039 90.6945 77.8873 80.6945 77.8873 80.6945C80.5346 74.7223 81.9279 67.639 81.2313 59.0279Z" fill="white"/>
</g>
<defs>
<filter id="filter0_d" x="-4" y="0" width="426" height="133" filterUnits="userSpaceOnUse" color-interpolation-filters="sRGB">
<feFlood flood-opacity="0" result="BackgroundImageFix"/>
<feColorMatrix in="SourceAlpha" type="matrix" values="0 0 0 0 0 0 0 0 0 0 0 0 0 0 0 0 0 0 127 0" result="hardAlpha"/>
<feOffset dy="4"/>
<feGaussianBlur stdDeviation="2"/>
<feComposite in2="hardAlpha" operator="out"/>
<feColorMatrix type="matrix" values="0 0 0 0 0 0 0 0 0 0 0 0 0 0 0 0 0 0 0.25 0"/>
<feBlend mode="normal" in2="BackgroundImageFix" result="effect1_dropShadow"/>
<feBlend mode="normal" in="SourceGraphic" in2="effect1_dropShadow" result="shape"/>
</filter>
</defs>
</svg>
