<svg width="900" height="270" viewBox="0 0 900 270" fill="none" xmlns="http://www.w3.org/2000/svg">
<path d="M297.9 108.9C281.4 108.9 268.2 122.1 268.2 138.6C268.2 155.1 281.4 168.3 297.9 168.3C314.4 168.3 327.6 155.1 327.6 138.6C327.6 122.1 314.4 108.9 297.9 108.9ZM297.9 151.8C290.7 151.8 284.7 145.8 284.7 138.6C284.7 131.4 290.7 125.4 297.9 125.4C305.1 125.4 311.1 131.4 311.1 138.6C310.8 145.8 305.1 151.8 297.9 151.8Z" fill="black"/>
<path d="M787.5 108.6C771 108.6 757.8 121.8 757.8 138.3C757.8 154.8 771 168 787.5 168C804 168 817.2 154.8 817.2 138.3C817.2 121.8 804 108.6 787.5 108.6ZM787.5 151.5C780.3 151.5 774.3 145.5 774.3 138.3C774.3 131.1 780.3 125.1 787.5 125.1C794.7 125.1 800.7 131.1 800.7 138.3C800.4 145.8 794.7 151.5 787.5 151.5Z" fill="black"/>
<path d="M258.6 125.1C258.3 125.1 258.3 124.8 258.6 125.1C256.2 118.8 250.5 109.8 236.4 109.2C226.2 108.9 220.5 108.9 217.2 108.9C216.9 108.9 216.9 108.9 216.9 108.9H213.3C210.9 108.9 209.1 110.1 208.8 111.9V168.3H225.6V155.1H238.2C238.2 155.1 255 155.1 258.9 134.7C258.9 133.8 259.2 133.2 259.2 132.3C259.2 129.6 259.2 127.8 258.6 125.1ZM243 131.4C242.7 139.5 233.7 139.5 233.7 139.5H230.1C227.7 139.5 225.6 137.7 225.6 135.9V126.6C225.6 124.5 227.7 123 230.1 123H233.7C233.7 122.7 242.7 122.7 243 131.4C243 131.1 243 131.1 243 131.4C243 131.1 243 131.1 243 131.4Z" fill="black"/>
<path d="M637.2 125.1C634.8 118.8 629.1 109.8 615 109.2C604.8 108.9 599.1 108.9 595.8 108.9C595.5 108.9 595.5 108.9 595.5 108.9H591.9C589.5 108.9 587.7 110.1 587.4 111.9V168.3H604.2V155.1H616.8C616.8 155.1 633.6 155.1 637.5 134.7C637.5 133.8 637.8 133.2 637.8 132.3C637.8 129.9 637.8 128.1 637.2 125.1ZM621.6 131.4C621.3 139.5 612.3 139.5 612.3 139.5H609C606.6 139.5 604.5 137.7 604.5 135.9V126.6C604.5 124.5 606.6 123 609 123H612.6C612.3 123 621.3 123 621.6 131.4Z" fill="black"/>
<path d="M872.7 126.301C872.7 126.301 872.7 126.001 872.7 126.301C870.3 120.001 864.6 111.001 850.5 110.401C840.3 110.101 834.6 110.101 831.3 110.101C831 110.101 831 110.101 831 110.101H827.4C825 110.101 823.2 111.301 822.9 113.101V169.501H839.7V156.301H852.3C852.3 156.301 869.1 156.301 873 135.901C873 135.001 873.3 134.401 873.3 133.501C873.6 130.801 873.3 129.001 872.7 126.301ZM857.1 132.601C856.8 140.701 847.8 140.701 847.8 140.701H844.2C841.8 140.701 839.7 138.901 839.7 137.101V127.801C839.7 125.701 841.8 124.201 844.2 124.201H847.8C848.1 123.901 856.8 123.901 857.1 132.601C857.1 132.301 857.1 132.301 857.1 132.601C857.1 132.301 857.1 132.301 857.1 132.601Z" fill="black"/>
<path d="M385.5 118.8C380.1 112.8 372.3 108.9 363.6 108.9C347.1 108.9 333.9 122.1 333.9 138.6C333.9 155.1 347.1 168.3 363.6 168.3C366.6 168.3 369.3 167.7 372 167.1C372 167.1 372.6 166.8 373.5 166.5C375.9 165.6 380.4 163.8 382.5 161.1C382.8 161.1 382.8 160.8 383.1 160.5C383.4 159.9 383.7 159 383.1 157.8C382.5 156.3 381.6 153.9 380.7 151.8C380.7 151.8 380.4 151.2 380.1 150.6C380.1 150.6 379.8 150 379.5 149.4C379.5 149.1 379.5 149.1 379.2 148.8C378.3 147.3 376.5 148.2 376.5 148.2C375.6 148.5 374.7 149.1 374.7 149.1C374.4 149.1 374.1 149.4 374.1 149.4C371.1 150.6 367.8 150.9 365.4 150.9C360.3 150.9 357.3 149.1 355.8 147.9C350.7 143.4 351 137.1 353.1 132.3C353.4 132 354.9 129.3 357.3 127.5C357.3 127.5 357.6 127.5 357.6 127.2C357.9 126.9 358.2 126.9 358.5 126.6C359.4 126.3 360.3 126 361.2 125.7C364.5 125.1 367.5 125.4 369.9 126C371.4 126.3 374.4 127.2 377.4 129C377.7 129.3 378 129.3 378.3 129.3C378.3 129.3 379.5 130.2 381.6 126.3C383.1 123.3 384.3 121.8 384.6 120.9V120.6C384.6 120.6 384.6 120.6 384.6 120.3C386.1 120.3 386.4 119.4 385.5 118.8Z" fill="black"/>
<path d="M513.3 112.2C513.3 110.1 511.5 108 509.1 108H505.8H465.6H462.6H462.3C459.9 108 458.1 109.8 458.1 112.2V115.5V122.4V168.3H475.8V124.2H495V167.7H513V122.1V112.2H513.3Z" fill="black"/>
<path d="M698.7 108.9L703.8 125.4H720.3V168.3H737.1V125.4H752.7C752.7 125.4 756.6 111.9 758.1 108.9" fill="black"/>
<path d="M682.5 108.9H658.2L636.6 167.7L658.5 168.3L660 159H679.8L682.2 167.7H704.1L682.5 108.9ZM664.8 146.4L670.5 126.9L676.2 146.4H664.8Z" fill="black"/>
<path d="M417.9 108C401.4 108 388.2 121.2 388.2 137.7C388.2 154.2 401.4 167.4 417.9 167.4C434.4 167.4 447.6 154.2 447.6 137.7C447.6 121.2 434.4 108 417.9 108ZM417.9 150.9C410.7 150.9 404.7 144.9 404.7 137.7C404.7 130.5 410.7 124.5 417.9 124.5C425.1 124.5 431.1 130.5 431.1 137.7C431.1 145.2 425.1 150.9 417.9 150.9Z" fill="black"/>
<path d="M546.6 144.3H568.2V132.3H546.6V123H571.5L576.9 108.9H535.2H534H532.2C530.1 108.9 528.6 110.4 528.6 112.5V117.9V121.5V155.4V164.1V164.4C528.6 166.2 530.4 167.7 532.2 167.7H533.7H534.9H567L572.1 155.4H546V144.3H546.6Z" fill="black"/>
<path d="M104.1 135.3C102.9 106.5 76.7999 106.2 76.7999 106.2H66.5999C59.3999 106.2 53.3999 112.2 53.3999 119.4V151.5C53.3999 158.7 59.3999 164.7 66.5999 164.7H76.7999C76.7999 164.7 102.6 164.7 103.8 135.9V135.6C104.1 135.3 104.1 135.3 104.1 135.3Z" fill="#2EBDDC"/>
<path d="M174.9 127.501C172.8 95.1006 158.7 73.8006 143.4 60.0006C127.8 46.5006 109.8 39.6006 95.1 36.6006C81.3 33.9006 62.4 33.6006 60.6 33.6006C56.1 33.6006 51 33.6006 45.3 33.6006H37.8C30.9 33.6006 25.5 37.5006 25.5 42.6006V64.5006C25.5 69.3006 31.2 73.5006 37.8 73.5006H47.4C47.4 73.5006 48 73.5006 49.2 73.5006C49.5 73.5006 49.8 73.5006 50.1 73.5006C54.3 73.5006 60.3 73.5006 68.1 73.8006C81 73.5006 94.2 77.4006 102 81.0006C108.6 84.6006 115.2 89.4006 120.3 96.3006C129.3 106.801 135 120.601 135.6 135.301C136.2 150.601 129.9 165.001 119.4 175.801C111 184.801 100.2 191.101 88.5 194.101C78 197.101 69.3 197.401 67.8 197.701C67.5 197.701 67.2 197.701 67.2 197.701C66 198.001 64.8 198.001 63.3 198.001C62.1 198.301 60.9 198.301 59.7 198.601C55.8 200.101 53.1 203.101 53.1 206.401V228.301C53.1 233.101 58.8 237.301 65.4 237.301H75C75 237.301 75.6 237.301 76.5 237.301C76.5 237.301 77.7 237.301 80.1 237.001C96.6 235.501 110.1 231.001 121.2 225.001C127.2 222.001 132.9 218.401 138 213.901C160.2 195.901 167.7 174.301 167.7 174.301C173.4 161.401 176.4 146.101 174.9 127.501Z" fill="black"/>
</svg>
