<svg width="90" height="90" viewBox="0 0 90 90" fill="none" xmlns="http://www.w3.org/2000/svg">
<rect width="90" height="90" fill="#2B2B2B"/>
<path d="M45.9204 45.2498C45.5858 37.2498 38.3068 37.1665 38.3068 37.1665H35.4621C33.4541 37.1665 31.7808 38.8332 31.7808 40.8332V49.7498C31.7808 51.7498 33.4541 53.4165 35.4621 53.4165H38.3068C38.3068 53.4165 45.5021 53.4165 45.8368 45.4165V45.3332C45.9204 45.2498 45.9204 45.2498 45.9204 45.2498Z" fill="#2EBDDC"/>
<path d="M65.666 43.0833C65.0803 34.0833 61.148 28.1667 56.881 24.3333C52.5303 20.5833 47.5103 18.6667 43.4107 17.8333C39.562 17.0833 34.291 17 33.789 17C32.534 17 31.1117 17 29.522 17H27.4303C25.506 17 24 18.0833 24 19.5V25.5833C24 26.9167 25.5897 28.0833 27.4303 28.0833H30.1077C30.1077 28.0833 30.275 28.0833 30.6097 28.0833C30.6933 28.0833 30.777 28.0833 30.8607 28.0833C32.032 28.0833 33.7053 28.0833 35.8807 28.1667C39.4783 28.0833 43.1597 29.1667 45.335 30.1667C47.1757 31.1667 49.0163 32.5 50.4387 34.4167C52.9487 37.3333 54.5383 41.1667 54.7057 45.25C54.873 49.5 53.116 53.5 50.1877 56.5C47.845 59 44.833 60.75 41.57 61.5833C38.6417 62.4167 36.2153 62.5 35.797 62.5833C35.7133 62.5833 35.6297 62.5833 35.6297 62.5833C35.295 62.6667 34.9603 62.6667 34.542 62.6667C34.2073 62.75 33.8727 62.75 33.538 62.8333C32.4503 63.25 31.6973 64.0833 31.6973 65V71.0833C31.6973 72.4167 33.287 73.5833 35.1277 73.5833H37.805C37.805 73.5833 37.9723 73.5833 38.2233 73.5833C38.2233 73.5833 38.558 73.5833 39.2273 73.5C43.829 73.0833 47.594 71.8333 50.6897 70.1667C52.363 69.3333 53.9527 68.3333 55.375 67.0833C61.5663 62.0833 63.658 56.0833 63.658 56.0833C65.2477 52.5 66.0843 48.25 65.666 43.0833Z" fill="white"/>
</svg>
